<?xml version="1.0" encoding="iso-8859-1"?>
<!-- Generator: Adobe Illustrator 18.1.1, SVG Export Plug-In . SVG Version: 6.00 Build 0)  -->
<svg version="1.1" id="Capa_1" xmlns="http://www.w3.org/2000/svg" xmlns:xlink="http://www.w3.org/1999/xlink" x="0px" y="0px"
	 viewBox="0 0 263.193 263.193" style="enable-background:new 0 0 263.193 263.193;" xml:space="preserve">
<g>
	<g>
		<path style="fill:#010002;" d="M121.569,243.849c-1.468,0-2.918-0.543-4.04-1.575L1.927,135.986
			C0.698,134.858,0,133.259,0,131.594s0.698-3.264,1.927-4.392L117.535,20.915c1.742-1.605,4.278-2.017,6.438-1.068
			c2.166,0.949,3.568,3.097,3.568,5.466v57.765c78.906,15.168,135.651,73.005,135.651,139.088c0,3.18-0.161,6.498-0.513,10.43
			c-0.268,3.037-2.793,5.382-5.842,5.436c-3.013,0.078-5.645-2.208-6.021-5.239c-4.421-35.974-53.547-56.9-96.246-55.355
			c-9.523,0.364-18.593,1.432-27.03,3.192v57.252c0,2.363-1.402,4.511-3.568,5.466C123.198,243.682,122.381,243.849,121.569,243.849
			z"/>
	</g>
</g>
<g>
</g>
<g>
</g>
<g>
</g>
<g>
</g>
<g>
</g>
<g>
</g>
<g>
</g>
<g>
</g>
<g>
</g>
<g>
</g>
<g>
</g>
<g>
</g>
<g>
</g>
<g>
</g>
<g>
</g>
</svg>
